{"title":"Poster Boys 2017 720p DVD-Rip x264 DD5.1 Mafiaking M2Tv","magnet":"magnet:?xt=urn:btih:0e9bcec805d94710092010ecf4956c3eef5f8c6f&dn=Poster+Boys+2017+720p+DVD-Rip+x264+DD5.1+Mafiaking+M2Tv&tr=udp%3A%2F%2Ftracker.leechers-paradise.org%3A6969&tr=udp%3A%2F%2Fzer0day.ch%3A1337&tr=udp%3A%2F%2Fopen.demonii.com%3A1337&tr=udp%3A%2F%2Ftracker.coppersurfer.tk%3A6969&tr=udp%3A%2F%2Fexodus.desync.com%3A6969","uploader":"mafiaaking","categoryP":"video","categoryS":"movies","size":"1154362419","seeders":"34","leechers":"73","description":"Poster Boys (2017) - 720p - DVD-Rip - Hindi - x264 - AC3 - DD5.1 - Mafiaking - M2Tv\r\n\r\nIMDB=http://www.imdb.com/title/tt6352548/\r\n\r\nRatings: 6.1/10\r\n\r\nGenere:     Comedy \r\n\r\nGeneral\r\nComplete name               : Poster Boys (2017) - 720p - DVD-Rip - Hindi - x264 - AC3 - DD5.1 - Mafiaking - M2Tv.mkv\r\nFormat                      : Matroska\r\nFormat version              : Version 4 / Version 2\r\nFile size                   : 1.07 GiB\r\nDuration                    : 2 h 9 min\r\nOverall bit rate            : 1 176 kb/s\r\nMovie name                  : Poster Boys (2017) - 720p - DVD-Rip - Hindi - x264 - AC3 - DD5.1 - Mafiaking - M2Tv\r\n\r\nVideo\r\nID                          : 1\r\nFormat                      : AVC\r\nFormat/Info                 : Advanced Video Codec\r\nFormat profile              : <a href=\"/cdn-cgi/l/email-protection\" class=\"__cf_email__\" data-cfemail=\"2961404e4169651a0718\">[email&#xA0;protected]</a>\r\nFormat settings, CABAC      : Yes\r\nFormat settings, RefFrames  : 4 frames\r\nCodec ID                    : V_MPEG4/ISO/AVC\r\nDuration                    : 2 h 9 min\r\nBit rate                    : 950 kb/s\r\nWidth                       : 1 280 pixels\r\nHeight                      : 544 pixels\r\nDisplay aspect ratio        : 2.35:1\r\nFrame rate mode             : Constant\r\nFrame rate                  : 23.976 (24000/1001) FPS\r\nColor space                 : YUV\r\nChroma subsampling          : 4:2:0\r\nBit depth                   : 8 bits\r\nScan type                   : Progressive\r\nBits/(Pixel*Frame)          : 0.057\r\nStream size                 : 883 MiB (81%)\r\nTitle                       : Mafiaking\r\nLanguage                    : Hindi\r\nDefault                     : Yes\r\nForced                      : No\r\n\r\nAudio\r\nID                          : 2\r\nFormat                      : AC-3\r\nFormat/Info                 : Audio Coding 3\r\nFormat settings, Endianness : Big\r\nCodec ID                    : A_AC3\r\nDuration                    : 2 h 9 min\r\nBit rate mode               : Constant\r\nBit rate                    : 224 kb/s\r\nChannel(s)                  : 6 channels\r\nChannel positions           : Front: L C R, Side: L R, LFE\r\nSampling rate               : 48.0 kHz\r\nFrame rate                  : 31.250 FPS (1536 SPF)\r\nBit depth                   : 16 bits\r\nCompression mode            : Lossy\r\nStream size                 : 208 MiB (19%)\r\nTitle                       : Mafiaking\r\nLanguage                    : Hindi\r\nService kind                : Complete Main\r\nDefault                     : Yes\r\nForced                      : No\r\n\r\nScreens:-\r\n <a href=\"\nhttps://www.lookimg.com/image/gkwij\" rel=\"nofollow\" target=\"_NEW\">\nhttps://www.lookimg.com/image/gkwij</a> <a href=\"\nhttps://www.lookimg.com/image/gkD3o\" rel=\"nofollow\" target=\"_NEW\">\nhttps://www.lookimg.com/image/gkD3o</a> <a href=\"\nhttps://www.lookimg.com/image/gkjvH\" rel=\"nofollow\" target=\"_NEW\">\nhttps://www.lookimg.com/image/gkjvH</a> <a href=\"\nhttps://www.lookimg.com/image/gkl0V\" rel=\"nofollow\" target=\"_NEW\">\nhttps://www.lookimg.com/image/gkl0V</a> <a href=\"\nhttps://www.lookimg.com/image/gktWK\" rel=\"nofollow\" target=\"_NEW\">\nhttps://www.lookimg.com/image/gktWK</a> <a href=\"\nhttps://www.lookimg.com/image/gkCrs\" rel=\"nofollow\" target=\"_NEW\">\nhttps://www.lookimg.com/image/gkCrs</a> <a href=\"\nhttps://www.lookimg.com/image/gkbuc\" rel=\"nofollow\" target=\"_NEW\">\nhttps://www.lookimg.com/image/gkbuc</a> <a href=\"\nhttps://www.lookimg.com/image/gkEDz\" rel=\"nofollow\" target=\"_NEW\">\nhttps://www.lookimg.com/image/gkEDz</a> <a href=\"\nhttps://www.lookimg.com/image/gkN53\" rel=\"nofollow\" target=\"_NEW\">\nhttps://www.lookimg.com/image/gkN53</a> <a href=\"\nhttps://www.lookimg.com/image/gkpBM\" rel=\"nofollow\" target=\"_NEW\">\nhttps://www.lookimg.com/image/gkpBM</a> <a href=\"\nhttps://www.lookimg.com/image/gk3cv\" rel=\"nofollow\" target=\"_NEW\">\nhttps://www.lookimg.com/image/gk3cv</a> <a href=\"\nhttps://www.lookimg.com/image/gk43E\" rel=\"nofollow\" target=\"_NEW\">\nhttps://www.lookimg.com/image/gk43E</a> <a href=\"\nhttps://www.lookimg.com/image/gkS7d\" rel=\"nofollow\" target=\"_NEW\">\nhttps://www.lookimg.com/image/gkS7d</a> <a href=\"\nhttps://www.lookimg.com/image/gksq9\" rel=\"nofollow\" target=\"_NEW\">\nhttps://www.lookimg.com/image/gksq9</a>","last_updated":"2017-11-19T12:12:20.870Z","parsed":{"xt":"urn:btih:0e9bcec805d94710092010ecf4956c3eef5f8c6f","dn":"Poster Boys 2017 720p DVD-Rip x264 DD5.1 Mafiaking M2Tv","tr":["udp://exodus.desync.com:6969","udp://open.demonii.com:1337","udp://tracker.coppersurfer.tk:6969","udp://tracker.leechers-paradise.org:6969","udp://zer0day.ch:1337"],"infoHash":"0e9bcec805d94710092010ecf4956c3eef5f8c6f","infoHashBuffer":{"type":"Buffer","data":[14,155,206,200,5,217,71,16,9,32,16,236,244,149,108,62,239,95,140,111]},"name":"Poster Boys 2017 720p DVD-Rip x264 DD5.1 Mafiaking M2Tv","announce":["udp://exodus.desync.com:6969","udp://open.demonii.com:1337","udp://tracker.coppersurfer.tk:6969","udp://tracker.leechers-paradise.org:6969","udp://zer0day.ch:1337"],"urlList":[]}}